<mxfile host="app.diagrams.net" modified="2023-12-01T22:16:43.094Z" agent="Mozilla/5.0 (Windows NT 10.0; Win64; x64) AppleWebKit/537.36 (KHTML, like Gecko) Chrome/119.0.0.0 Safari/537.36" etag="qPmNRYEtJmbNeba1H35l" version="22.1.5" type="device">
  <diagram id="R2lEEEUBdFMjLlhIrx00" name="Page-1">
    <mxGraphModel dx="1515" dy="1840" grid="1" gridSize="10" guides="1" tooltips="1" connect="1" arrows="1" fold="1" page="1" pageScale="1" pageWidth="850" pageHeight="1100" math="0" shadow="0" extFonts="Permanent Marker^https://fonts.googleapis.com/css?family=Permanent+Marker">
      <root>
        <mxCell id="0" />
        <mxCell id="1" parent="0" />
        <mxCell id="OPPxmtIxOgDon8LMqgU2-45" value="" style="rounded=1;whiteSpace=wrap;html=1;fillColor=#f5f5f5;fontColor=#333333;strokeColor=#666666;" vertex="1" parent="1">
          <mxGeometry x="70" y="-10" width="1030" height="690" as="geometry" />
        </mxCell>
        <mxCell id="OPPxmtIxOgDon8LMqgU2-35" value="" style="rounded=0;whiteSpace=wrap;html=1;fillColor=#ffe6cc;strokeColor=#d79b00;" vertex="1" parent="1">
          <mxGeometry x="180" y="90" width="160" height="500" as="geometry" />
        </mxCell>
        <mxCell id="OPPxmtIxOgDon8LMqgU2-33" value="" style="rounded=0;whiteSpace=wrap;html=1;fillColor=#e1d5e7;strokeColor=#9673a6;" vertex="1" parent="1">
          <mxGeometry x="340" y="90" width="620" height="500" as="geometry" />
        </mxCell>
        <mxCell id="OPPxmtIxOgDon8LMqgU2-31" value="" style="rounded=1;whiteSpace=wrap;html=1;" vertex="1" parent="1">
          <mxGeometry x="650" y="330" width="120" height="60" as="geometry" />
        </mxCell>
        <mxCell id="OPPxmtIxOgDon8LMqgU2-22" value="" style="rounded=0;whiteSpace=wrap;html=1;fillColor=#d5e8d4;strokeColor=#82b366;" vertex="1" parent="1">
          <mxGeometry x="500" y="90" width="460" height="370" as="geometry" />
        </mxCell>
        <mxCell id="OPPxmtIxOgDon8LMqgU2-12" value="" style="rounded=1;whiteSpace=wrap;html=1;strokeWidth=1;shadow=1;" vertex="1" parent="1">
          <mxGeometry x="660" y="130" width="280" height="200" as="geometry" />
        </mxCell>
        <mxCell id="OPPxmtIxOgDon8LMqgU2-7" value="Pavement Method" style="rounded=1;whiteSpace=wrap;html=1;shadow=1;" vertex="1" parent="1">
          <mxGeometry x="815" y="170" width="110" height="60" as="geometry" />
        </mxCell>
        <mxCell id="OPPxmtIxOgDon8LMqgU2-8" value="Reporting" style="rounded=1;whiteSpace=wrap;html=1;shadow=1;" vertex="1" parent="1">
          <mxGeometry x="840" y="350" width="100" height="60" as="geometry" />
        </mxCell>
        <mxCell id="OPPxmtIxOgDon8LMqgU2-9" value="Investments" style="rounded=1;whiteSpace=wrap;html=1;shadow=1;" vertex="1" parent="1">
          <mxGeometry x="695" y="350" width="100" height="60" as="geometry" />
        </mxCell>
        <mxCell id="OPPxmtIxOgDon8LMqgU2-10" value="Card Aggregate" style="rounded=1;whiteSpace=wrap;html=1;shadow=1;" vertex="1" parent="1">
          <mxGeometry x="815" y="250" width="110" height="60" as="geometry" />
        </mxCell>
        <mxCell id="OPPxmtIxOgDon8LMqgU2-11" value="Online Payments" style="rounded=1;whiteSpace=wrap;html=1;shadow=1;" vertex="1" parent="1">
          <mxGeometry x="690" y="250" width="110" height="60" as="geometry" />
        </mxCell>
        <mxCell id="OPPxmtIxOgDon8LMqgU2-13" value="Offers" style="rounded=1;whiteSpace=wrap;html=1;glass=0;shadow=1;" vertex="1" parent="1">
          <mxGeometry x="200" y="420" width="120" height="60" as="geometry" />
        </mxCell>
        <mxCell id="OPPxmtIxOgDon8LMqgU2-14" value="Notifications" style="rounded=1;whiteSpace=wrap;html=1;glass=0;shadow=1;" vertex="1" parent="1">
          <mxGeometry x="200" y="510" width="120" height="60" as="geometry" />
        </mxCell>
        <mxCell id="OPPxmtIxOgDon8LMqgU2-15" value="Credit Score" style="rounded=1;whiteSpace=wrap;html=1;glass=0;shadow=1;" vertex="1" parent="1">
          <mxGeometry x="200" y="330" width="120" height="60" as="geometry" />
        </mxCell>
        <mxCell id="OPPxmtIxOgDon8LMqgU2-16" value="Third-party payment gateways" style="rounded=1;whiteSpace=wrap;html=1;shadow=1;" vertex="1" parent="1">
          <mxGeometry x="360" y="130" width="120" height="60" as="geometry" />
        </mxCell>
        <mxCell id="OPPxmtIxOgDon8LMqgU2-18" value="Payment" style="text;html=1;align=center;verticalAlign=middle;resizable=0;points=[];autosize=1;fontSize=13;" vertex="1" parent="1">
          <mxGeometry x="690" y="150" width="70" height="30" as="geometry" />
        </mxCell>
        <mxCell id="OPPxmtIxOgDon8LMqgU2-19" value="User related issues" style="rounded=1;whiteSpace=wrap;html=1;shadow=1;" vertex="1" parent="1">
          <mxGeometry x="360" y="400" width="120" height="60" as="geometry" />
        </mxCell>
        <mxCell id="OPPxmtIxOgDon8LMqgU2-20" value="Payment Related Issues&amp;nbsp;" style="rounded=1;whiteSpace=wrap;html=1;shadow=1;" vertex="1" parent="1">
          <mxGeometry x="360" y="490" width="120" height="60" as="geometry" />
        </mxCell>
        <mxCell id="OPPxmtIxOgDon8LMqgU2-24" value="User Aggregate" style="rounded=1;whiteSpace=wrap;html=1;shadow=1;" vertex="1" parent="1">
          <mxGeometry x="520" y="170" width="120" height="60" as="geometry" />
        </mxCell>
        <mxCell id="OPPxmtIxOgDon8LMqgU2-26" value="Stock server gateways" style="rounded=1;whiteSpace=wrap;html=1;shadow=1;" vertex="1" parent="1">
          <mxGeometry x="360" y="220" width="120" height="60" as="geometry" />
        </mxCell>
        <mxCell id="OPPxmtIxOgDon8LMqgU2-27" value="Governments finance server gateways&amp;nbsp;" style="rounded=1;whiteSpace=wrap;html=1;shadow=1;" vertex="1" parent="1">
          <mxGeometry x="360" y="310" width="120" height="60" as="geometry" />
        </mxCell>
        <mxCell id="OPPxmtIxOgDon8LMqgU2-28" value="Transaction logs" style="rounded=1;whiteSpace=wrap;html=1;shadow=1;" vertex="1" parent="1">
          <mxGeometry x="580" y="490" width="120" height="60" as="geometry" />
        </mxCell>
        <mxCell id="OPPxmtIxOgDon8LMqgU2-29" value="Rewards" style="rounded=1;whiteSpace=wrap;html=1;glass=0;shadow=1;" vertex="1" parent="1">
          <mxGeometry x="200" y="240" width="120" height="60" as="geometry" />
        </mxCell>
        <mxCell id="OPPxmtIxOgDon8LMqgU2-30" value="&lt;b&gt;&lt;font style=&quot;font-size: 18px;&quot;&gt;Core&lt;/font&gt;&lt;/b&gt;" style="text;html=1;align=center;verticalAlign=middle;resizable=0;points=[];autosize=1;" vertex="1" parent="1">
          <mxGeometry x="520" y="110" width="60" height="40" as="geometry" />
        </mxCell>
        <mxCell id="OPPxmtIxOgDon8LMqgU2-36" value="" style="endArrow=classic;html=1;rounded=0;" edge="1" parent="1">
          <mxGeometry width="50" height="50" relative="1" as="geometry">
            <mxPoint x="150" y="620" as="sourcePoint" />
            <mxPoint x="1020" y="620" as="targetPoint" />
          </mxGeometry>
        </mxCell>
        <mxCell id="OPPxmtIxOgDon8LMqgU2-38" value="" style="endArrow=classic;html=1;rounded=0;" edge="1" parent="1">
          <mxGeometry width="50" height="50" relative="1" as="geometry">
            <mxPoint x="150" y="620" as="sourcePoint" />
            <mxPoint x="150" y="70" as="targetPoint" />
          </mxGeometry>
        </mxCell>
        <mxCell id="OPPxmtIxOgDon8LMqgU2-39" value="Model Complexity" style="text;html=1;align=center;verticalAlign=middle;resizable=0;points=[];autosize=1;rotation=-90;fontSize=13;" vertex="1" parent="1">
          <mxGeometry x="65" y="330" width="130" height="30" as="geometry" />
        </mxCell>
        <mxCell id="OPPxmtIxOgDon8LMqgU2-40" value="Business Differentiation" style="text;html=1;align=center;verticalAlign=middle;resizable=0;points=[];autosize=1;fontSize=13;" vertex="1" parent="1">
          <mxGeometry x="460" y="630" width="160" height="30" as="geometry" />
        </mxCell>
        <mxCell id="OPPxmtIxOgDon8LMqgU2-41" value="&lt;b&gt;&lt;font style=&quot;font-size: 18px;&quot;&gt;Supporting&lt;/font&gt;&lt;/b&gt;" style="text;html=1;align=center;verticalAlign=middle;resizable=0;points=[];autosize=1;" vertex="1" parent="1">
          <mxGeometry x="780" y="500" width="120" height="40" as="geometry" />
        </mxCell>
        <mxCell id="OPPxmtIxOgDon8LMqgU2-42" value="&lt;b&gt;&lt;font style=&quot;font-size: 18px;&quot;&gt;Generic&lt;/font&gt;&lt;/b&gt;" style="text;html=1;align=center;verticalAlign=middle;resizable=0;points=[];autosize=1;" vertex="1" parent="1">
          <mxGeometry x="215" y="110" width="90" height="40" as="geometry" />
        </mxCell>
        <mxCell id="OPPxmtIxOgDon8LMqgU2-46" value="&lt;b&gt;&lt;font style=&quot;font-size: 20px;&quot;&gt;Domain Driven Diagram&lt;/font&gt;&lt;/b&gt;" style="text;html=1;align=center;verticalAlign=middle;resizable=0;points=[];autosize=1;strokeColor=none;fillColor=none;" vertex="1" parent="1">
          <mxGeometry x="455" y="10" width="250" height="40" as="geometry" />
        </mxCell>
      </root>
    </mxGraphModel>
  </diagram>
</mxfile>
